<?xml version="1.0" encoding="utf-8"?>
<!-- Generator: Adobe Illustrator 18.0.0, SVG Export Plug-In . SVG Version: 6.00 Build 0)  -->
<!DOCTYPE svg PUBLIC "-//W3C//DTD SVG 1.1//EN" "http://www.w3.org/Graphics/SVG/1.1/DTD/svg11.dtd">
<svg version="1.1" xmlns="http://www.w3.org/2000/svg" xmlns:xlink="http://www.w3.org/1999/xlink" x="0px" y="0px"
	 viewBox="0 0 83.4 91.2" enable-background="new 0 0 83.4 91.2" xml:space="preserve">
<g id="Layer_8" display="none">
</g>
<g id="Logo-1">
	<rect x="-111.7" y="-113.2" display="none" fill="#2C2D3A" width="493" height="318"/>
	<g>
		<linearGradient id="SVGID_1_" gradientUnits="userSpaceOnUse" x1="32.2617" y1="7.5779" x2="41.7578" y2="7.5779">
			<stop  offset="0" style="stop-color:#1481C4"/>
			<stop  offset="1" style="stop-color:#117FC3"/>
		</linearGradient>
		<circle fill="url(#SVGID_1_)" cx="37" cy="7.6" r="4.7"/>
		<linearGradient id="SVGID_2_" gradientUnits="userSpaceOnUse" x1="70.2617" y1="18.5779" x2="79.7578" y2="18.5779">
			<stop  offset="0" style="stop-color:#09AFDE"/>
			<stop  offset="1" style="stop-color:#06B0DE"/>
		</linearGradient>
		<circle fill="url(#SVGID_2_)" cx="75" cy="18.6" r="4.7"/>
		<linearGradient id="SVGID_3_" gradientUnits="userSpaceOnUse" x1="21.2617" y1="43.5779" x2="30.7578" y2="43.5779">
			<stop  offset="0" style="stop-color:#0AAEE0"/>
			<stop  offset="1" style="stop-color:#02ADDD"/>
		</linearGradient>
		<circle fill="url(#SVGID_3_)" cx="26" cy="43.6" r="4.7"/>
		<linearGradient id="SVGID_4_" gradientUnits="userSpaceOnUse" x1="57.2617" y1="54.5779" x2="66.7578" y2="54.5779">
			<stop  offset="0" style="stop-color:#117EC2"/>
			<stop  offset="1" style="stop-color:#117FC3"/>
		</linearGradient>
		<circle fill="url(#SVGID_4_)" cx="62" cy="54.6" r="4.7"/>
		<linearGradient id="SVGID_5_" gradientUnits="userSpaceOnUse" x1="36.1465" y1="11.3182" x2="22.9072" y2="86.4019">
			<stop  offset="0" style="stop-color:#15B2E3"/>
			<stop  offset="1" style="stop-color:#64C8CD"/>
		</linearGradient>
		<path fill="url(#SVGID_5_)" d="M49.6,43.5c8,0,14.5-6.5,14.5-14.5c0-8-6.5-14.5-14.5-14.5c-5.6,0-10.5,3.2-12.9,7.9l-8.9-2.7
			c-0.3-6.5-5.6-11.6-12.1-11.6C8.9,7.9,3.5,13.3,3.5,20c0,6.7,5.4,12.1,12.1,12.1c4.5,0,8.3-2.4,10.5-6l8.9,2.8c0,0,0,0,0,0
			c0,5.5,3,10.3,7.5,12.7l-3.7,13.4c-0.4,0-0.7-0.1-1.1-0.1c-9.3,0-16.9,7.5-16.9,16.9c0,9.3,7.5,16.9,16.9,16.9
			c9.3,0,16.9-7.5,16.9-16.9c0-6.5-3.7-12.2-9.1-15l3.7-13.5C49.3,43.5,49.4,43.5,49.6,43.5z M15.7,25.7c-3.1,0-5.7-2.5-5.7-5.7
			c0-3.1,2.5-5.7,5.7-5.7c3.1,0,5.7,2.5,5.7,5.7C21.4,23.1,18.8,25.7,15.7,25.7z M37.7,82.5c-5.8,0-10.5-4.7-10.5-10.5
			c0-5.8,4.7-10.5,10.5-10.5c5.8,0,10.5,4.7,10.5,10.5C48.1,77.8,43.4,82.5,37.7,82.5z M49.6,20.8c4.6,0,8.3,3.7,8.3,8.2
			s-3.7,8.2-8.3,8.2s-8.3-3.7-8.3-8.2S45,20.8,49.6,20.8z"/>
	</g>
</g>
<g id="Logo-2" display="none">
	<rect x="-111.7" y="-113.2" fill="#FFFFFF" width="493" height="318"/>
	<g display="inline">
		<linearGradient id="SVGID_6_" gradientUnits="userSpaceOnUse" x1="32.2617" y1="7.5779" x2="41.7578" y2="7.5779">
			<stop  offset="0" style="stop-color:#1481C4"/>
			<stop  offset="1" style="stop-color:#117FC3"/>
		</linearGradient>
		<circle fill="url(#SVGID_6_)" cx="37" cy="7.6" r="4.7"/>
		<linearGradient id="SVGID_7_" gradientUnits="userSpaceOnUse" x1="70.2617" y1="18.5779" x2="79.7578" y2="18.5779">
			<stop  offset="0" style="stop-color:#09AFDE"/>
			<stop  offset="1" style="stop-color:#06B0DE"/>
		</linearGradient>
		<circle fill="url(#SVGID_7_)" cx="75" cy="18.6" r="4.7"/>
		<linearGradient id="SVGID_8_" gradientUnits="userSpaceOnUse" x1="21.2617" y1="43.5779" x2="30.7578" y2="43.5779">
			<stop  offset="0" style="stop-color:#0AAEE0"/>
			<stop  offset="1" style="stop-color:#02ADDD"/>
		</linearGradient>
		<circle fill="url(#SVGID_8_)" cx="26" cy="43.6" r="4.7"/>
		<linearGradient id="SVGID_9_" gradientUnits="userSpaceOnUse" x1="57.2617" y1="54.5779" x2="66.7578" y2="54.5779">
			<stop  offset="0" style="stop-color:#117EC2"/>
			<stop  offset="1" style="stop-color:#117FC3"/>
		</linearGradient>
		<circle fill="url(#SVGID_9_)" cx="62" cy="54.6" r="4.7"/>
		<linearGradient id="SVGID_10_" gradientUnits="userSpaceOnUse" x1="36.1465" y1="11.3182" x2="22.9072" y2="86.4019">
			<stop  offset="0" style="stop-color:#15B2E3"/>
			<stop  offset="1" style="stop-color:#64C8CD"/>
		</linearGradient>
		<path fill="url(#SVGID_10_)" d="M49.6,43.5c8,0,14.5-6.5,14.5-14.5c0-8-6.5-14.5-14.5-14.5c-5.6,0-10.5,3.2-12.9,7.9l-8.9-2.7
			c-0.3-6.5-5.6-11.6-12.1-11.6C8.9,7.9,3.5,13.3,3.5,20c0,6.7,5.4,12.1,12.1,12.1c4.5,0,8.3-2.4,10.5-6l8.9,2.8c0,0,0,0,0,0
			c0,5.5,3,10.3,7.5,12.7l-3.7,13.4c-0.4,0-0.7-0.1-1.1-0.1c-9.3,0-16.9,7.5-16.9,16.9c0,9.3,7.5,16.9,16.9,16.9
			c9.3,0,16.9-7.5,16.9-16.9c0-6.5-3.7-12.2-9.1-15l3.7-13.5C49.3,43.5,49.4,43.5,49.6,43.5z M15.7,25.7c-3.1,0-5.7-2.5-5.7-5.7
			c0-3.1,2.5-5.7,5.7-5.7c3.1,0,5.7,2.5,5.7,5.7C21.4,23.1,18.8,25.7,15.7,25.7z M37.7,82.5c-5.8,0-10.5-4.7-10.5-10.5
			c0-5.8,4.7-10.5,10.5-10.5c5.8,0,10.5,4.7,10.5,10.5C48.1,77.8,43.4,82.5,37.7,82.5z M49.6,20.8c4.6,0,8.3,3.7,8.3,8.2
			s-3.7,8.2-8.3,8.2s-8.3-3.7-8.3-8.2S45,20.8,49.6,20.8z"/>
	</g>
</g>
<g id="Logo-3" display="none">
	<rect x="-111.7" y="-113.2" fill="#1184D4" width="493" height="318"/>
	<g display="inline">
		<circle fill="#B8D9ED" cx="37" cy="7.6" r="4.7"/>
		<circle fill="#B6E7F5" cx="75" cy="18.6" r="4.7"/>
		<circle fill="#B6E7F5" cx="26" cy="43.6" r="4.7"/>
		<circle fill="#B8D9ED" cx="62" cy="54.6" r="4.7"/>
		<linearGradient id="SVGID_11_" gradientUnits="userSpaceOnUse" x1="36.1465" y1="11.3182" x2="22.9072" y2="86.4019">
			<stop  offset="0" style="stop-color:#BAE8F7"/>
			<stop  offset="1" style="stop-color:#D1EFF0"/>
		</linearGradient>
		<path fill="url(#SVGID_11_)" d="M49.6,43.5c8,0,14.5-6.5,14.5-14.5c0-8-6.5-14.5-14.5-14.5c-5.6,0-10.5,3.2-12.9,7.9l-8.9-2.7
			c-0.3-6.5-5.6-11.6-12.1-11.6C8.9,7.9,3.5,13.3,3.5,20c0,6.7,5.4,12.1,12.1,12.1c4.5,0,8.3-2.4,10.5-6l8.9,2.8c0,0,0,0,0,0
			c0,5.5,3,10.3,7.5,12.7l-3.7,13.4c-0.4,0-0.7-0.1-1.1-0.1c-9.3,0-16.9,7.5-16.9,16.9c0,9.3,7.5,16.9,16.9,16.9
			c9.3,0,16.9-7.5,16.9-16.9c0-6.5-3.7-12.2-9.1-15l3.7-13.5C49.3,43.5,49.4,43.5,49.6,43.5z M15.7,25.7c-3.1,0-5.7-2.5-5.7-5.7
			c0-3.1,2.5-5.7,5.7-5.7c3.1,0,5.7,2.5,5.7,5.7C21.4,23.1,18.8,25.7,15.7,25.7z M37.7,82.5c-5.8,0-10.5-4.7-10.5-10.5
			c0-5.8,4.7-10.5,10.5-10.5c5.8,0,10.5,4.7,10.5,10.5C48.1,77.8,43.4,82.5,37.7,82.5z M49.6,20.8c4.6,0,8.3,3.7,8.3,8.2
			s-3.7,8.2-8.3,8.2s-8.3-3.7-8.3-8.2S45,20.8,49.6,20.8z"/>
	</g>
</g>
</svg>
